<svg width="1080" height="1080" viewBox="0 0 1080 1080" fill="none" xmlns="http://www.w3.org/2000/svg">
<g clip-path="url(#clip0_703_133)">
<path d="M175.28 590.57H82.21C70.6341 590.57 61.25 599.954 61.25 611.53V704.6C61.25 716.176 70.6341 725.56 82.21 725.56H175.28C186.856 725.56 196.24 716.176 196.24 704.6V611.53C196.24 599.954 186.856 590.57 175.28 590.57Z" fill="#FFDF99" stroke="#FFDF99" stroke-width="4.5" stroke-linecap="round" stroke-linejoin="round"/>
<path d="M147.16 236.43C151.86 236.43 155.67 232.62 155.67 227.92C155.67 223.22 151.86 219.41 147.16 219.41C142.46 219.41 138.65 223.22 138.65 227.92C138.65 232.62 142.46 236.43 147.16 236.43Z" fill="#BC7B40" stroke="#BC7B40" stroke-width="4.5" stroke-linecap="round" stroke-linejoin="round"/>
<path d="M158.84 219.41C163.54 219.41 167.35 215.6 167.35 210.9C167.35 206.2 163.54 202.39 158.84 202.39C154.14 202.39 150.33 206.2 150.33 210.9C150.33 215.6 154.14 219.41 158.84 219.41Z" fill="#BC7B40" stroke="#BC7B40" stroke-width="4.5" stroke-linecap="round" stroke-linejoin="round"/>
<path d="M171.53 204.44C176.23 204.44 180.04 200.63 180.04 195.93C180.04 191.23 176.23 187.42 171.53 187.42C166.83 187.42 163.02 191.23 163.02 195.93C163.02 200.63 166.83 204.44 171.53 204.44Z" fill="#BC7B40" stroke="#BC7B40" stroke-width="4.5" stroke-linecap="round" stroke-linejoin="round"/>
<path d="M867.46 379.07C867.46 379.07 823.56 411.66 806.94 432.94C790.32 454.22 783.76 462.08 784.31 467.41C784.86 470.15 785.96 472.09 787.43 473.07C791.43 475.73 816.25 466.42 839.3 446.91C862.35 427.4 887.63 400.79 888.08 399.5C888.53 398.21 867.46 379.07 867.46 379.07Z" fill="#3C4043" stroke="#1F1F1F" stroke-width="4.5" stroke-linecap="round" stroke-linejoin="round"/>
<path d="M799.29 243.72C815.58 219.12 842.19 212.46 869.45 216.12C893.2 219.31 913.73 241.39 917.67 269C921.67 296.93 915.67 323.87 891.07 339.16C867.72 353.67 830.21 353.46 810.59 336.16C790.97 318.86 776.37 278.34 799.29 243.72Z" fill="#B53113" stroke="#1F1F1F" stroke-width="4.5" stroke-linecap="round" stroke-linejoin="round"/>
<path d="M896.06 402.68C905.94 403.54 948.93 409.33 963.9 410.33C978.87 411.33 982.85 413.33 982.52 418.33C982.19 423.33 971.88 423.98 956.91 423.65C942.85 423.34 909.69 422.32 899.38 419.65C889.07 416.98 888.41 402.01 896.06 402.68Z" fill="#BC7B40" stroke="#1F1F1F" stroke-width="4.5" stroke-linecap="round" stroke-linejoin="round"/>
<path d="M638.34 107.71C652.64 100.4 676.34 104.54 687.22 121.35C694.54 132.65 696.53 148.95 687.89 162.92C675.89 182.37 652.3 184.53 637.34 177.22C621.49 169.46 618.02 156.6 617.72 143.3C617.39 128.67 624.36 114.86 638.34 107.71Z" fill="#B53113" stroke="#1F1F1F" stroke-width="4.5" stroke-linecap="round" stroke-linejoin="round"/>
<path d="M687.89 162.92C702.94 142.61 734.44 132.32 759.38 137.98C784.32 143.64 808.55 165.98 811.59 202.82C813.92 231.09 795.59 252.37 778 263.01C761.89 272.74 734.77 273.65 716.15 265.34C693.7 255.34 678.57 235.41 675.58 216.46C672.59 197.51 673.59 182.2 687.89 162.92Z" fill="#B53113" stroke="#1F1F1F" stroke-width="4.5" stroke-linecap="round" stroke-linejoin="round"/>
<path d="M290.39 457.55C274.94 463.92 248.27 485.92 260.68 536.91C273.09 587.9 352.02 639.78 422.96 665.91C493.9 692.04 549.64 693.7 627.83 663.72C686.83 641.11 714.27 602.5 714.27 602.5C714.27 602.5 481.05 456.22 426.95 450.9C372.85 445.58 318.32 446.02 290.39 457.55Z" fill="#3C4043" stroke="#1F1F1F" stroke-width="4.5" stroke-linecap="round" stroke-linejoin="round"/>
<path d="M843.29 533.81C809.6 507.65 789.64 498.81 789.64 498.81L761.71 518.6C761.71 518.6 635.26 604.93 618.88 616.2C603.42 626.84 591.95 609.77 590.78 586.44C588.83 547.82 592.18 465.5 596.14 390.5L595.88 390.16L496.88 390.22C496.88 390.22 352.95 448.22 342.31 453.57C331.67 458.92 329.41 467.3 325.83 480.16C322.25 493.02 224.77 785.21 224.77 785.21C238.51 771.91 267.33 781.66 298.77 790.09C330.21 798.52 371.49 823.34 378.14 830.44C384.79 837.54 385.68 842.85 385.68 842.85L413.61 566.18L513.83 516.96C513.83 516.96 525.35 684.12 530.23 715.6C535.11 747.08 550.63 768.81 571.47 771.91C592.31 775.01 626 764.82 683.2 724.91C740.4 685 788.73 643.77 825.53 620.27C862.33 596.77 895.14 585.69 895.14 585.69C895.14 585.69 876.99 559.97 843.29 533.81Z" fill="white" stroke="#1F1F1F" stroke-width="4.5" stroke-linecap="round" stroke-linejoin="round"/>
<path d="M378.18 830.44C371.53 823.34 330.29 798.51 298.81 790.09C267.33 781.67 238.51 771.91 224.81 785.21C215.67 799.12 238.55 824.21 262.5 836.21C286.45 848.21 337.43 863.7 359.15 860.6C380.87 857.5 386.64 853.06 385.76 842.86C385.72 842.85 384.83 837.5 378.18 830.44Z" fill="#3C4043" stroke="#1F1F1F" stroke-width="4.5" stroke-linecap="round" stroke-linejoin="round"/>
<path d="M857.48 470.85C857.48 470.85 847.28 487.25 827.77 504.55C823.36 508.46 819.56 511.7 816.33 514.37C823.9 519.37 832.95 525.78 843.33 533.81C854.546 542.519 865.135 552.005 875.02 562.2C882.63 555.75 891.85 547.99 901.42 540.02C925.36 520.07 954.62 516.07 978.57 510.75C1002.52 505.43 1018.47 498.34 1019.36 486.37L857.48 470.85Z" fill="white" stroke="#1F1F1F" stroke-width="4.5" stroke-linecap="round" stroke-linejoin="round"/>
<path d="M555.53 153.83C550.8 161.98 547.53 172.89 546.22 185.75C544.91 198.61 547.11 201.75 554.22 203.49C558.767 204.512 563.499 204.357 567.97 203.04L555.97 236.3L551.1 258.5C551.1 258.5 558.2 264.26 574.6 265.15C591 266.04 604.31 258.05 604.31 258.05L605.42 237.44C601.901 228.979 599.442 220.115 598.1 211.05C596.33 199.53 617.57 184.89 619.38 166.71C622.04 140.11 602.26 134.66 593.22 134.35C580.36 133.87 563.52 140.08 555.53 153.83Z" fill="#BC7B40" stroke="#1F1F1F" stroke-width="4.5" stroke-linecap="round" stroke-linejoin="round"/>
<path d="M574.6 265.12C558.79 264.26 551.6 258.89 551.15 258.5C544.9 286.91 533.26 338.62 520.39 390.15H595.88L604.31 258.02C604.31 258.02 591.01 266 574.6 265.12Z" fill="#3C4043" stroke="#3C4043" stroke-width="4.5" stroke-linecap="round" stroke-linejoin="round"/>
<path d="M513.86 516.96L511.97 495.46" stroke="#1F1F1F" stroke-width="4.5" stroke-linecap="round" stroke-linejoin="round"/>
<path d="M593.22 134.32C580.36 133.87 563.52 140.08 555.53 153.83C554.81 155.07 554.13 156.39 553.47 157.76C561.03 163.33 572.06 163.58 577.15 163.58C583.15 163.58 588.44 163.22 595.15 160.26C601.15 157.6 607.05 161.46 605.46 167.26C602.8 176.9 594.81 177.57 592.15 185.26C589.49 192.95 591.49 198.89 598.15 211.08C596.38 199.56 617.62 184.92 619.43 166.74C622.04 140.08 602.26 134.63 593.22 134.32Z" fill="#B53113" stroke="#1F1F1F" stroke-width="4.5" stroke-linecap="round" stroke-linejoin="round"/>
<path d="M867.46 379.07C869.009 380.766 870.917 382.095 873.045 382.96C875.173 383.825 877.467 384.204 879.76 384.07C888.08 383.73 921 383.4 927.32 383.07C933.64 382.74 936.32 390.07 928.65 392.71C919.76 395.8 912.02 397.71 902.04 400.36C899.45 401.05 900.87 403.44 905.7 405.02C922.99 410.67 963.23 419.32 969.55 421.31C975.87 423.3 973.87 430.62 961.55 430.31C949.23 430 903.02 425.99 878.08 419.31C853.14 412.63 832.85 407.31 832.85 407.31C847.17 394.36 867.46 379.07 867.46 379.07Z" fill="#BC7B40" stroke="#1F1F1F" stroke-width="4.5" stroke-linecap="round" stroke-linejoin="round"/>
<path d="M189.83 217.81C193.34 223.88 193.18 242.93 199.43 257.94C205.68 272.95 217.28 278.72 217.28 278.72" stroke="#1F1F1F" stroke-width="4.5" stroke-linecap="round" stroke-linejoin="round"/>
<path d="M298.83 790.09C293.9 788.77 289.04 787.42 284.29 786.09C278.06 802.65 258.76 834.66 242.97 847.69C225.23 862.32 191.53 875.62 158.72 878.28C125.91 880.94 102.83 891.18 101.06 898.72C99.29 906.26 103.28 909.8 114.36 915.12C125.44 920.44 254.03 950.12 276.2 953.26C298.37 956.4 314.33 959.02 318.77 943.94C323.21 928.86 332.07 875.66 339.6 853.49C344.36 839.49 350.71 824.09 354.75 814.63C338.58 805.37 317.06 794.97 298.83 790.09Z" fill="white" stroke="#1F1F1F" stroke-width="4.5" stroke-linecap="round" stroke-linejoin="round"/>
<path d="M312.56 934.63C304.13 928.87 236.74 912.02 196.39 905.81C159.48 900.13 109.58 894.46 100.68 902.02C100.75 907.42 105.04 910.65 114.36 915.12C125.45 920.44 254.03 950.12 276.2 953.26C294.14 955.77 308.01 957.98 315 950.75C320.01 944.6 319.06 939.08 312.56 934.63Z" fill="white" stroke="#1F1F1F" stroke-width="4.5" stroke-linecap="round" stroke-linejoin="round"/>
<path d="M605.42 237.41C605.42 237.41 620.05 229.41 632.68 226.1C645.31 222.79 658.62 222.1 673.92 233.41C689.22 244.72 867.46 379.07 867.46 379.07C867.46 379.07 823.56 411.66 806.94 432.94C790.32 454.22 783.66 462.2 784.32 467.5L671.92 317.88C671.56 336.41 676.72 376.17 684.43 413.4C690.83 444.32 698.98 473.49 707.17 487.31C727.29 521.23 745.91 521.06 761.71 518.57C761.71 518.57 635.26 604.9 618.88 616.17C603.42 626.81 591.1 609.74 589.93 586.41C585.94 506.26 605.42 237.41 605.42 237.41Z" fill="#7FCFFF" stroke="#7FCFFF" stroke-width="4.5" stroke-linecap="round" stroke-linejoin="round"/>
<path d="M555.98 236.3C555.98 236.3 510.75 448.68 482.83 519.18C454.91 589.68 442.92 601.18 434.5 600.32C426.08 599.46 403.02 577.71 383.5 544.89C363.98 512.07 343.15 477.06 324.5 465.97C305.85 454.88 290.36 457.55 290.36 457.55L483.68 373.75C483.68 373.75 475.68 350.25 474.81 328.96C474.81 328.96 433.57 363.11 397.66 382.61C369.73 397.79 338.24 398.61 299.23 390.15C260.22 381.69 201.23 351.15 201.23 351.15C211.43 351.15 229.68 337.04 240.23 307.92C249.02 283.65 258.43 255.13 258.43 255.13L375.49 324.99C375.49 324.99 454.41 254.05 475.69 236.32C496.97 218.59 522.25 219.02 535.11 224.79C542.408 227.973 549.395 231.826 555.98 236.3Z" fill="#7FCFFF" stroke="#7FCFFF" stroke-width="4.5" stroke-linecap="round" stroke-linejoin="round"/>
<path d="M438.83 969.33C445.83 893.51 512.66 822.68 576.5 822.68C640.34 822.68 679.24 886.5 686.22 933.41C714.16 830.66 804.94 705.96 941.61 658.07" stroke="#7FCFFF" stroke-width="4.5" stroke-linecap="round" stroke-linejoin="round"/>
<g style="mix-blend-mode:overlay">
<path d="M258.46 255.11L375.52 324.97C375.52 324.97 454.44 254.03 475.72 236.3C497 218.57 522.28 219 535.14 224.77" stroke="#1F1F1F" stroke-width="4.5" stroke-linecap="round" stroke-linejoin="round"/>
</g>
<g style="mix-blend-mode:overlay">
<path d="M632.68 226.1C645.32 222.77 658.62 222.1 673.92 233.41C689.22 244.72 867.46 379.07 867.46 379.07" stroke="#1F1F1F" stroke-width="4.5" stroke-linecap="round" stroke-linejoin="round"/>
</g>
<path d="M761.71 518.57C761.71 518.57 635.26 604.9 618.88 616.17" stroke="#1F1F1F" stroke-width="4.5" stroke-linecap="round" stroke-linejoin="round"/>
<g style="mix-blend-mode:overlay">
<path d="M684.43 413.4C676.72 376.17 671.56 336.4 671.92 317.88C671.26 307.68 671.15 295.94 671.15 295.94" stroke="#1F1F1F" stroke-width="4.5" stroke-linecap="round" stroke-linejoin="round"/>
</g>
<path d="M867.46 379.07C867.46 379.07 823.56 411.66 806.94 432.94C790.32 454.22 783.66 462.2 784.32 467.5" stroke="#1F1F1F" stroke-width="4.5" stroke-linecap="round" stroke-linejoin="round"/>
<path d="M452.03 306.32C452.026 275.229 443.055 244.799 426.192 218.678C409.33 192.556 385.292 171.852 356.961 159.048C328.629 146.243 297.205 141.881 266.457 146.484C235.709 151.088 206.94 164.462 183.601 185.002C160.261 205.543 143.341 232.379 134.868 262.293C126.395 292.207 126.729 323.93 135.831 353.659C144.932 383.388 162.414 409.862 186.181 429.906C209.948 449.951 238.992 462.715 269.83 466.67L421.61 400.73C441.437 373.247 452.082 340.208 452.03 306.32Z" fill="#6DD58C" stroke="#6DD58C" stroke-width="4.5" stroke-linecap="round" stroke-linejoin="round"/>
<path d="M395.52 257.66L362.02 224.16L262.82 323.35L219.3 279.83L185.79 313.34L262.68 390.22L262.82 390.08L262.96 390.22L395.52 257.66Z" fill="white" stroke="#1F1F1F" stroke-width="4.5" stroke-linecap="round" stroke-linejoin="round"/>
<g style="mix-blend-mode:overlay">
<path d="M290.39 144.68C247.52 144.68 206.407 161.71 176.093 192.023C145.78 222.337 128.75 263.45 128.75 306.32" stroke="#1F1F1F" stroke-width="4.5" stroke-linecap="round" stroke-linejoin="round"/>
</g>
<path d="M474.83 328.96C473.05 308.13 474.83 285.07 474.83 285.07" stroke="#1F1F1F" stroke-width="4.5" stroke-linecap="round" stroke-linejoin="round"/>
<path d="M290.39 457.55L483.71 373.75C483.71 373.75 475.71 350.25 474.84 328.96" stroke="#1F1F1F" stroke-width="4.5" stroke-linecap="round" stroke-linejoin="round"/>
<path d="M290.39 457.55C274.94 463.92 248.27 485.92 260.68 536.91C260.68 536.91 265.42 560.91 290.68 587.32" stroke="#1F1F1F" stroke-width="4.5" stroke-linecap="round" stroke-linejoin="round"/>
</g>
<defs>
<clipPath id="clip0_703_133">
<rect width="962.57" height="869.58" fill="white" transform="translate(59 102)"/>
</clipPath>
</defs>
</svg>
