<svg width="200" height="200" viewBox="0 0 200 200" fill="none" xmlns="http://www.w3.org/2000/svg">
<path d="M184.825 134.16C188.271 145.641 169.236 150.404 160.703 151.382C152.169 152.36 157.751 124.143 157.751 124.143L181.625 122.425L184.825 134.16Z" fill="#444746" stroke="#131314" stroke-linecap="round" stroke-linejoin="round"/>
<path d="M155.667 69.3818H90.5247C82.4235 69.3818 75.8562 75.9492 75.8562 84.0504V149.193C75.8562 157.294 82.4235 163.861 90.5247 163.861H155.667C163.769 163.861 170.336 157.294 170.336 149.193V84.0504C170.336 75.9492 163.769 69.3818 155.667 69.3818Z" fill="#7FCFFF" stroke="#131314" stroke-linecap="round" stroke-linejoin="round"/>
<path d="M155.669 69.3809C168.497 69.3809 171.451 82.9642 171.451 82.9642C171.451 82.9642 181.952 124.398 184.825 134.16C183.184 131.405 180.565 130.353 177.03 130.353C169.564 130.353 141.341 145.566 125.425 145.566C123.701 145.566 120.747 144.909 120.747 141.862C120.747 136.677 130.593 130.551 130.593 125.381C130.593 111.351 96.3803 133.257 75.8562 133.257V84.0494C75.8562 72.6272 86.1469 69.3809 90.5247 69.3809H155.669Z" fill="white" stroke="#131314" stroke-linecap="round" stroke-linejoin="round"/>
<path d="M120.747 141.869V121.232C120.747 121.232 130.593 118.084 130.593 125.382C130.593 130.713 120.747 136.375 120.747 141.869Z" fill="#444746" stroke="#131314" stroke-linecap="round" stroke-linejoin="round"/>
<path d="M130.593 125.383V80.5049" stroke="#131314" stroke-linecap="round" stroke-linejoin="round"/>
<path d="M17.4524 150.077C14.2524 160.416 32.4672 153.031 32.4672 153.031L34.108 135.809L21.808 140.91L17.4524 150.077Z" fill="#444746" stroke="#131314" stroke-linecap="round" stroke-linejoin="round"/>
<path d="M94.0894 146.96C96.0524 152.784 82.4228 155.586 82.4228 155.586L77.7561 137.36H89.4228L94.0894 146.96Z" fill="#444746" stroke="#131314" stroke-linecap="round" stroke-linejoin="round"/>
<path d="M44.8858 98.6397L23.0265 145.573C18.3284 155.664 28.0265 166.466 38.5562 162.886L51.3599 157.145C53.9963 156.249 56.855 156.249 59.4914 157.145L73.0821 163.166C83.5025 166.705 93.158 156.164 88.721 146.093L67.9228 98.8805C63.5395 88.9323 49.4747 88.7842 44.8858 98.6397Z" fill="#6DD58C" stroke="#131314" stroke-linecap="round" stroke-linejoin="round"/>
<path d="M14.8599 163.861H182.873" stroke="#7FCFFF" stroke-linecap="round" stroke-linejoin="round"/>
<path d="M17.4525 150.076C22.2784 142.041 55.8173 132.356 55.8173 139.084C55.8173 142.856 47.8099 144.739 47.8099 146.96C47.8099 151.219 88.0118 136.621 94.0896 146.96C94.0896 146.96 73.3488 104.041 70.6173 100.193C67.8858 96.345 63.9192 91.332 56.5062 91.332C49.0933 91.332 44.2007 95.5913 37.8025 108.071C31.4044 120.551 17.4525 150.076 17.4525 150.076Z" fill="white" stroke="#131314" stroke-linecap="round" stroke-linejoin="round"/>
<path d="M47.8098 146.96L49.2913 136.897C49.2913 136.897 55.8209 135.971 55.8209 139.084C55.8191 142.94 48.145 144.662 47.8098 146.96Z" fill="#444746" stroke="#131314" stroke-linecap="round" stroke-linejoin="round"/>
<path d="M55.8174 139.084V105.772" stroke="#131314" stroke-linecap="round" stroke-linejoin="round"/>
<path d="M124.547 69.1192C133.649 69.1192 141.028 61.7402 141.028 52.6377C141.028 43.5353 133.649 36.1562 124.547 36.1562C115.444 36.1562 108.065 43.5353 108.065 52.6377C108.065 61.7402 115.444 69.1192 124.547 69.1192Z" fill="#FFDF99" stroke="#FFDF99" stroke-linecap="round" stroke-linejoin="round"/>
<g style="mix-blend-mode:overlay" opacity="0.5">
<path d="M124.547 36.1562C128.918 36.1563 133.11 37.8927 136.201 40.9836C139.292 44.0744 141.028 48.2666 141.028 52.6377" stroke="white" stroke-linecap="round" stroke-linejoin="round"/>
</g>
</svg>
